<svg xmlns="http://www.w3.org/2000/svg" version="1.1" xmlns:xlink="http://www.w3.org/1999/xlink" xmlns:svgjs="http://svgjs.dev/svgjs" width="1440" height="560" preserveAspectRatio="none" viewBox="0 0 1440 560"><g mask="url(&quot;#SvgjsMask1194&quot;)" fill="none"><rect width="1440" height="560" x="0" y="0" fill="url(&quot;#SvgjsLinearGradient1195&quot;)"></rect><path d="M1440 0L975.1700000000001 0L1440 69.12z" fill="rgba(255, 255, 255, .1)"></path><path d="M975.1700000000001 0L1440 69.12L1440 141.53L539.49 0z" fill="rgba(255, 255, 255, .075)"></path><path d="M539.49 0L1440 141.53L1440 183.41L514.63 0z" fill="rgba(255, 255, 255, .05)"></path><path d="M514.63 0L1440 183.41L1440 261.85L437.53999999999996 0z" fill="rgba(255, 255, 255, .025)"></path><path d="M0 560L571.92 560L0 385.55z" fill="rgba(0, 0, 0, .1)"></path><path d="M0 385.55L571.92 560L839.9 560L0 181.08z" fill="rgba(0, 0, 0, .075)"></path><path d="M0 181.08000000000004L839.9 560L1020.3299999999999 560L0 177.42000000000004z" fill="rgba(0, 0, 0, .05)"></path><path d="M0 177.42000000000002L1020.3299999999999 560L1272.32 560L0 142.78000000000003z" fill="rgba(0, 0, 0, .025)"></path></g><defs><mask id="SvgjsMask1194"><rect width="1440" height="560" fill="#ffffff"></rect></mask><linearGradient x1="15.28%" y1="-39.29%" x2="84.72%" y2="139.29%" gradientUnits="userSpaceOnUse" id="SvgjsLinearGradient1195"><stop stop-color="#0e2a47" offset="0"></stop><stop stop-color="rgba(158, 14, 0, 1)" offset="0.56"></stop><stop stop-color="rgba(158, 14, 0, 1)" offset="0.59"></stop><stop stop-color="rgba(158, 14, 0, 1)" offset="1"></stop></linearGradient></defs></svg>